<svg width="80" height="27" fill="none" xmlns="http://www.w3.org/2000/svg"><path d="M52.127 26.62h7.827c-.546-1.168-.745-2.188-.773-3.937l-.056-4.345c-.057-3.557-1.263-4.724-5.075-4.841v-.612c3.985-.205 5.419-1.837 5.419-6.154v-.233c0-4.374-1.95-6.123-6.852-6.123H40.889v26.244h7.597v-9.913h1.72c1.061 0 1.406.407 1.406 1.632l.028 4.695c0 1.78.143 2.771.487 3.586zM72.284.374V20.29c0 1.196-.401 1.575-1.605 1.575s-1.605-.379-1.605-1.575V.375h-7.712v20.207c0 4.548 2.638 6.357 9.319 6.357 6.681 0 9.319-1.809 9.319-6.357V.375h-7.716zM48.398 12.68V5.156h1.75c1.117 0 1.576.439 1.576 1.43v4.579c0 1.02-.515 1.515-1.663 1.515h-1.663z" fill="#FF2C00"/><path d="M28.129 15.803l.056-1.168c.056-.99.546-1.4 1.635-1.4 1.09 0 1.577.438 1.577 1.4v6.416c0 1.02-.46 1.43-1.635 1.43-1.176 0-1.664-.408-1.664-1.459l-.028-2.944h-7.255l.028 3.09c.028 4.17 2.582 5.832 8.919 5.832 6.337 0 9.03-2.099 9.03-6.532v-6.562c0-4.228-1.576-6.094-5.188-6.094-2.954 0-4.388.934-5.133 3.383l-.115.38h-.602V5.48h10.437V.377H20.986v15.426h7.143zM9.406 21.897c-1.263 0-1.692-.35-1.692-1.43V6.5c0-1.05.401-1.401 1.692-1.401 1.29 0 1.691.379 1.691 1.4v13.969c0 1.05-.459 1.429-1.691 1.429zm0 5.103c6.737 0 9.347-1.808 9.347-6.473V6.502C18.753 1.806 16.143 0 9.406 0 2.668 0 0 1.78 0 6.502v14.025C0 25.222 2.61 27 9.406 27z" fill="#15252B"/></svg>